<?xml version="1.0" ?><svg viewBox="0 0 300 300" xmlns="http://www.w3.org/2000/svg"><defs><style>.a{fill:#ff3268;stroke:#ff3268;}.a,.b{stroke-linecap:round;stroke-linejoin:round;stroke-width:4px;}.b{fill:none;stroke:#121212;}.c{fill:#121212;}.d{fill:#2260e5;}</style></defs><title/><path class="a" d="M284.682,155.385a16.2,16.2,0,0,0-14.964-2.685c-.641-8.258-4.92-16.566-13.05-19.529-7.257-2.645-15.606-.555-21.675,3.737-.451.318-4.968,4.55-4.674,4.7a23.343,23.343,0,0,0-33.541,18.434,92.237,92.237,0,0,0,23.062-7.271c5.594-2.638,6.305-.05,5.622,3.571-2.639,13.993-6.969,25.765-12.531,35.529,14.679,1.64,30.081.707,44.043-1.325,10.94-1.592,26.582-4.473,31.192-16.083C290.65,168.2,290.177,159.935,284.682,155.385Z"/><path class="b" d="M10.575,67.86a10.607,10.607,0,0,1-.107-3.2c.97-8.757,6.407-12.111,13.647-12.222A22.66,22.66,0,0,1,56.768,33.457c-.285-.141,4.1-4.25,4.538-4.559,5.893-4.167,14-6.2,21.046-3.628,7.893,2.877,12.048,10.943,12.67,18.961a15.734,15.734,0,0,1,14.529,2.607c5.336,4.418,5.794,12.446,3.383,18.519-4.477,11.272-19.663,14.069-30.285,15.615C63.166,83.808,40.8,84.44,21.773,78.618,15.553,76.714,11.913,74.813,10.575,67.86Z"/><path class="c" d="M37.5,145.986a4.9,4.9,0,0,0-.3-.621,4.226,4.226,0,0,0-.833-1.049c-.6,2.072-1.714,5.3-3.193,9.462l-.321.9a1,1,0,1,1-1.885-.667l.321-.906c.687-1.929,2.464-6.929,3.224-9.561-.1-.007-.2-.011-.3-.011a8.181,8.181,0,0,0-6.237,3.93,12.369,12.369,0,0,0-.92,8.818,4.641,4.641,0,0,0,2.263,3.01c1.391.681,3.3-.054,4.626-.969a9.552,9.552,0,0,0,3.421-5.084C37.982,151.269,38.385,148.185,37.5,145.986Z"/><path class="b" d="M50.788,153.129c.7,1.341,1.353,2.711,2,4.074l3.04,6.4"/><path class="b" d="M40.111,141.982a16.4,16.4,0,0,1,5.271,3.478"/><path class="b" d="M61.793,155.086q-.867-.075-1.732-.186a74.537,74.537,0,0,1-14.587-3.358c-1.183-.421-1.733-2.274-1.168-3.759,2.689-7.06,8.876-10.472,14.205-12.5"/><path class="b" d="M104.959,121.747c-.038-1.4-.08-2.8-.1-4.194-.118-6.856.32-14.042,3.822-19.938a39.421,39.421,0,0,1,5.653-6.952c22.567-23.554,36.186-30.62,47.949-41.581.965-.9,16.134-17.246,24.031-15.017,6.716,1.9,7.3,13.833,2.642,24.642a64.178,64.178,0,0,1-6,10.872"/><path class="b" d="M125.306,151.81q-3.942-1.687-7.76-3.651c-1.715-.882-3.413-1.807-5.059-2.813a24.651,24.651,0,0,0,.409-4.857,27.838,27.838,0,0,0-18.747-25.552c-11.585-3.782-24.081,1.154-31.139,10.819a26.536,26.536,0,0,0-5.083,18.954,22.608,22.608,0,0,0,6.111,13.073,17.224,17.224,0,0,0,5.9,3.826c1.241.487,4.152,1.159,3.839,3.013-11.845,70.2,129.539,109.171,151.686-8.285.683-3.622-.028-6.209-5.622-3.571a92.66,92.66,0,0,1-24.124,7.458q-5.474.933-11.013,1.365"/><path class="b" d="M115.946,156.309c6.994-.624,12.533-6.593,15.037-13.153s2.638-13.739,3.217-20.737,1.76-14.274,5.93-19.923A40.371,40.371,0,0,1,146.6,95.99a285.537,285.537,0,0,1,32.549-24.033c6.914-4.384,14.031-8.48,20.547-13.437,1.686-1.282,18.219-15.916,26.016-12.847,6.662,2.622,5.992,14.9.177,25.376a65.846,65.846,0,0,1-17.679,20.4c3.419-1.816,7.927.449,9.647,3.918s1.272,7.625.2,11.344c-4.074,14.091-15.927,24.367-27.508,33.367,2.257,8.216-1.387,17.215-7.428,23.224s-14.132,9.484-22.245,12.087a6.779,6.779,0,0,0-3.266,1.751"/><path class="c" d="M38.782,135.257h0c1.031-3.548.016-8.074-1.278-11.127a14.842,14.842,0,0,0-6.1-7.329,10.835,10.835,0,0,0-5.006-1.437,5.212,5.212,0,0,0-2.777.722,7.647,7.647,0,0,0-3.266,5.3,19.067,19.067,0,0,0,2.765,13.383c2.323,3.252,6.909,5.529,10.449,5.182a6.271,6.271,0,0,0,1.134-.214c-1.237-3.365-4.9-11.116-6.426-14.358l-.6-1.277a1,1,0,0,1,1.81-.851l.6,1.275c3.05,6.461,5.359,11.5,6.406,14.312a6.447,6.447,0,0,0,1.9-2.51A7.874,7.874,0,0,0,38.782,135.257Z"/><path class="b" d="M186.365,99.776c11.009-2.693,13.989-5.064,21.844-8.329"/><path class="b" d="M168.781,148.567c11.009-2.693,13.909-5.226,21.764-8.491"/><path class="c" d="M83.774,132.138c0-3.7-3.539-4.477-4.685-4.477a4.855,4.855,0,0,0-5.01,4.6c0,2.781,2.662,4.4,4.879,4.4C80.986,136.664,83.774,135.075,83.774,132.138Z"/><path class="d" d="M22.234,255.557a14.214,14.214,0,0,1-.144-4.27c1.3-11.691,8.554-16.168,18.219-16.316A30.251,30.251,0,0,1,83.9,209.629c-.38-.188,5.475-5.674,6.059-6.086,7.866-5.563,18.689-8.272,28.094-4.844,10.538,3.842,16.084,14.609,16.915,25.313a21,21,0,0,1,19.4,3.48c7.123,5.9,7.735,16.615,4.516,24.722C152.9,267.263,132.63,271,118.451,273.06c-26.01,3.786-55.872,4.63-81.268-3.143C28.879,267.376,24.02,264.837,22.234,255.557Z"/></svg>